<svg xmlns="http://www.w3.org/2000/svg" fill="none" viewBox="0 0 96 96"><path fill="#fff" d="M27 88h58a1 1 0 0 0 1-1V28H69c-1.654 0-3-1.346-3-3V8H27a1 1 0 0 0-1 1v78a1 1 0 0 0 1 1z"/><path fill="#fff" d="M85.586 26 68 8.414V25a1 1 0 0 0 1 1h16.586z"/><path fill="#605E5C" fill-rule="evenodd" d="M87.121 24.707 69.293 6.879A2.978 2.978 0 0 0 67.172 6H27c-1.654 0-3 1.346-3 3v78c0 1.654 1.346 3 3 3h58c1.654 0 3-1.346 3-3V26.828c0-.8-.313-1.554-.879-2.121zM68 8.414 85.586 26H69a1 1 0 0 1-1-1V8.414zM27 88h58a1 1 0 0 0 1-1V28H69c-1.654 0-3-1.346-3-3V8H27a1 1 0 0 0-1 1v78a1 1 0 0 0 1 1z" clip-rule="evenodd" opacity=".64"/><path fill="#ED6C47" d="m61 54-1-1h-8l-1 1v11.158C53.655 67.539 57.153 69 61 69c8.284 0 15-6.716 15-15H61z"/><path fill="#FF8F6B" d="M51 42.842V54h10V39c-3.847 0-7.345 1.46-10 3.842z"/><path fill="#FFC7B5" d="M64 36v15h15c0-8.284-6.716-15-15-15z"/><path fill="#C43E1C" d="M12 74h32a4 4 0 0 0 4-4V38a4 4 0 0 0-4-4H12a4 4 0 0 0-4 4v32a4 4 0 0 0 4 4z"/><path fill="#F9F7F7" fill-rule="evenodd" d="M36.644 43.985C35.074 42.663 32.809 42 29.854 42H20v25h4.999v-9h4.544c1.887 0 3.547-.348 4.978-1.044 1.432-.696 2.537-1.671 3.314-2.926.776-1.254 1.165-2.686 1.165-4.297 0-2.508-.786-4.425-2.356-5.748zM28.967 54H25v-8h4.114c3.029 0 4.542 1.301 4.542 3.901 0 1.339-.394 2.357-1.184 3.054-.791.695-1.959 1.045-3.505 1.045z" clip-rule="evenodd"/></svg>